<svg width="800" height="600" viewBox="0 0 800 600" xmlns="http://www.w3.org/2000/svg" font-family="system-ui, sans-serif">
  <!-- Fondo -->
  <rect width="800" height="600" fill="#fdf2f8"/>

  <!-- Nav -->
  <rect width="800" height="56" fill="white"/>
  <rect x="32" y="18" width="80" height="20" rx="4" fill="#ec4899" opacity="0.15"/>
  <rect x="32" y="22" width="60" height="12" rx="3" fill="#be185d"/>
  <rect x="600" y="18" width="55" height="20" rx="10" fill="#ec4899"/>
  <rect x="500" y="22" width="40" height="12" rx="3" fill="#f9a8d4"/>
  <rect x="560" y="22" width="30" height="12" rx="3" fill="#f9a8d4"/>

  <!-- Hero -->
  <rect y="56" width="800" height="260" fill="#fce7f3"/>
  <rect x="32" y="90" width="200" height="16" rx="4" fill="#be185d" opacity="0.3"/>
  <rect x="32" y="118" width="340" height="36" rx="6" fill="#9d174d" opacity="0.8"/>
  <rect x="32" y="162" width="300" height="36" rx="6" fill="#9d174d" opacity="0.5"/>
  <rect x="32" y="210" width="260" height="16" rx="4" fill="#be185d" opacity="0.3"/>
  <rect x="32" y="238" width="130" height="38" rx="10" fill="#ec4899"/>
  <rect x="178" y="238" width="110" height="38" rx="10" fill="white" stroke="#ec4899" stroke-width="1.5"/>
  <!-- Foto decorativa -->
  <rect x="500" y="72" width="270" height="228" rx="16" fill="#fbcfe8"/>
  <ellipse cx="635" cy="175" rx="70" ry="85" fill="#f9a8d4"/>
  <circle cx="635" cy="110" r="35" fill="#fce7f3"/>

  <!-- Servicios -->
  <rect y="316" width="800" height="16" fill="#fdf2f8"/>
  <rect x="32" y="348" width="120" height="14" rx="3" fill="#9d174d" opacity="0.5"/>
  <rect x="270" y="348" width="120" height="14" rx="3" fill="#9d174d" opacity="0.5"/>
  <rect x="510" y="348" width="120" height="14" rx="3" fill="#9d174d" opacity="0.5"/>

  <rect x="32" y="372" width="218" height="130" rx="12" fill="white" stroke="#fce7f3" stroke-width="1.5"/>
  <rect x="270" y="372" width="218" height="130" rx="12" fill="white" stroke="#fce7f3" stroke-width="1.5"/>
  <rect x="508" y="372" width="218" height="130" rx="12" fill="white" stroke="#fce7f3" stroke-width="1.5"/>

  <rect x="50" y="395" width="80" height="10" rx="3" fill="#be185d" opacity="0.6"/>
  <rect x="50" y="415" width="140" height="8" rx="3" fill="#be185d" opacity="0.2"/>
  <rect x="50" y="430" width="120" height="8" rx="3" fill="#be185d" opacity="0.2"/>
  <rect x="50" y="470" width="70" height="22" rx="6" fill="#fce7f3"/>

  <rect x="288" y="395" width="80" height="10" rx="3" fill="#be185d" opacity="0.6"/>
  <rect x="288" y="415" width="140" height="8" rx="3" fill="#be185d" opacity="0.2"/>
  <rect x="288" y="430" width="120" height="8" rx="3" fill="#be185d" opacity="0.2"/>
  <rect x="288" y="470" width="70" height="22" rx="6" fill="#fce7f3"/>

  <rect x="526" y="395" width="80" height="10" rx="3" fill="#be185d" opacity="0.6"/>
  <rect x="526" y="415" width="140" height="8" rx="3" fill="#be185d" opacity="0.2"/>
  <rect x="526" y="430" width="120" height="8" rx="3" fill="#be185d" opacity="0.2"/>
  <rect x="526" y="470" width="70" height="22" rx="6" fill="#fce7f3"/>

  <!-- Footer -->
  <rect y="520" width="800" height="80" fill="#9d174d"/>
  <rect x="32" y="545" width="100" height="10" rx="3" fill="white" opacity="0.4"/>
  <rect x="32" y="562" width="160" height="8" rx="3" fill="white" opacity="0.2"/>
  <rect x="620" y="540" width="80" height="28" rx="8" fill="white" opacity="0.15"/>
</svg>
