<svg width="800" height="600" viewBox="0 0 800 600" xmlns="http://www.w3.org/2000/svg" font-family="system-ui, sans-serif">
  <rect width="800" height="600" fill="#fffbeb"/>

  <!-- Nav -->
  <rect width="800" height="56" fill="white" stroke="#fde68a" stroke-width="1"/>
  <rect x="32" y="18" width="110" height="20" rx="4" fill="#78350f" opacity="0.15"/>
  <rect x="40" y="22" width="80" height="12" rx="3" fill="#92400e"/>
  <rect x="480" y="22" width="45" height="12" rx="3" fill="#92400e" opacity="0.4"/>
  <rect x="540" y="22" width="55" height="12" rx="3" fill="#92400e" opacity="0.4"/>
  <rect x="612" y="14" width="120" height="28" rx="8" fill="#b45309"/>

  <!-- Hero con foto -->
  <rect y="56" width="800" height="280" fill="#78350f"/>
  <rect y="56" width="800" height="280" fill="url(#amb)" opacity="0.6"/>
  <defs>
    <linearGradient id="amb" x1="0" y1="0" x2="800" y2="280" gradientUnits="userSpaceOnUse">
      <stop offset="0%" stop-color="#92400e"/>
      <stop offset="100%" stop-color="#451a03"/>
    </linearGradient>
  </defs>
  <!-- Patrón decorativo -->
  <circle cx="600" cy="196" r="130" fill="#b45309" opacity="0.15"/>
  <circle cx="600" cy="196" r="90" fill="#b45309" opacity="0.15"/>
  <!-- Contenido hero -->
  <rect x="40" y="100" width="200" height="14" rx="4" fill="#fcd34d" opacity="0.7"/>
  <rect x="40" y="128" width="380" height="38" rx="6" fill="white" opacity="0.95"/>
  <rect x="40" y="174" width="320" height="28" rx="5" fill="white" opacity="0.5"/>
  <rect x="40" y="220" width="150" height="40" rx="10" fill="#f59e0b"/>
  <rect x="204" y="220" width="130" height="40" rx="10" fill="white" opacity="0.1" stroke="white" stroke-opacity="0.3" stroke-width="1.5"/>
  <!-- Disponibilidad visual -->
  <rect x="520" y="90" width="230" height="220" rx="16" fill="white" opacity="0.07" stroke="white" stroke-opacity="0.1" stroke-width="1"/>
  <rect x="535" y="105" width="140" height="12" rx="3" fill="white" opacity="0.4"/>
  <rect x="535" y="126" width="200" height="140" rx="8" fill="white" opacity="0.05"/>
  <!-- Mini calendario -->
  {[0,1,2,3,4,5,6].map((_, i) => null)}
  <rect x="543" y="134" width="26" height="26" rx="4" fill="#f59e0b" opacity="0.8"/>
  <rect x="575" y="134" width="26" height="26" rx="4" fill="white" opacity="0.1"/>
  <rect x="607" y="134" width="26" height="26" rx="4" fill="white" opacity="0.1"/>
  <rect x="639" y="134" width="26" height="26" rx="4" fill="white" opacity="0.1"/>
  <rect x="671" y="134" width="26" height="26" rx="4" fill="#ef4444" opacity="0.5"/>
  <rect x="543" y="167" width="26" height="26" rx="4" fill="white" opacity="0.1"/>
  <rect x="575" y="167" width="26" height="26" rx="4" fill="#f59e0b" opacity="0.8"/>
  <rect x="607" y="167" width="26" height="26" rx="4" fill="white" opacity="0.1"/>
  <rect x="639" y="167" width="26" height="26" rx="4" fill="white" opacity="0.1"/>
  <rect x="671" y="167" width="26" height="26" rx="4" fill="white" opacity="0.1"/>
  <rect x="543" y="200" width="26" height="26" rx="4" fill="white" opacity="0.1"/>
  <rect x="575" y="200" width="26" height="26" rx="4" fill="white" opacity="0.1"/>
  <rect x="607" y="200" width="26" height="26" rx="4" fill="#ef4444" opacity="0.5"/>
  <rect x="639" y="200" width="26" height="26" rx="4" fill="#f59e0b" opacity="0.8"/>
  <rect x="671" y="200" width="26" height="26" rx="4" fill="white" opacity="0.1"/>
  <rect x="543" y="248" width="180" height="32" rx="8" fill="#f59e0b"/>

  <!-- Sección fotos -->
  <rect y="336" width="800" height="16" fill="#fffbeb"/>
  <rect x="32" y="368" width="180" height="16" rx="4" fill="#78350f" opacity="0.5"/>
  <rect x="32" y="400" width="234" height="140" rx="10" fill="#fde68a"/>
  <rect x="278" y="400" width="234" height="140" rx="10" fill="#fed7aa"/>
  <rect x="524" y="400" width="234" height="140" rx="10" fill="#fef3c7"/>
  <!-- Iconos en las fotos -->
  <text x="149" y="478" font-size="36" text-anchor="middle" fill="#92400e" opacity="0.4">🏟️</text>
  <text x="395" y="478" font-size="36" text-anchor="middle" fill="#92400e" opacity="0.4">🍖</text>
  <text x="641" y="478" font-size="36" text-anchor="middle" fill="#92400e" opacity="0.4">🎉</text>

  <!-- Footer -->
  <rect y="558" width="800" height="42" fill="#451a03"/>
  <rect x="32" y="570" width="120" height="10" rx="3" fill="white" opacity="0.3"/>
  <rect x="600" y="566" width="100" height="20" rx="6" fill="white" opacity="0.1"/>
</svg>
