<svg width="800" height="600" viewBox="0 0 800 600" xmlns="http://www.w3.org/2000/svg" font-family="system-ui, sans-serif">
  <rect width="800" height="600" fill="#0f0f0f"/>

  <!-- Nav -->
  <rect width="800" height="60" fill="#0f0f0f" stroke="#ffffff10" stroke-width="1"/>
  <rect x="32" y="20" width="90" height="20" rx="2" fill="#dc2626" opacity="0.9"/>
  <rect x="420" y="24" width="40" height="12" rx="3" fill="white" opacity="0.2"/>
  <rect x="476" y="24" width="40" height="12" rx="3" fill="white" opacity="0.2"/>
  <rect x="532" y="24" width="40" height="12" rx="3" fill="white" opacity="0.2"/>
  <rect x="640" y="16" width="110" height="28" rx="6" fill="#dc2626"/>

  <!-- Hero full bleed oscuro -->
  <rect y="60" width="800" height="260" fill="#1a0a0a"/>
  <defs>
    <radialGradient id="rest-glow" cx="60%" cy="50%" r="60%">
      <stop offset="0%" stop-color="#dc2626" stop-opacity="0.18"/>
      <stop offset="100%" stop-color="#dc2626" stop-opacity="0"/>
    </radialGradient>
  </defs>
  <rect y="60" width="800" height="260" fill="url(#rest-glow)"/>

  <!-- Texto hero -->
  <rect x="40" y="95" width="160" height="10" rx="3" fill="#dc2626" opacity="0.6"/>
  <rect x="40" y="118" width="340" height="36" rx="4" fill="white" opacity="0.92"/>
  <rect x="40" y="162" width="280" height="22" rx="4" fill="white" opacity="0.35"/>
  <rect x="40" y="195" width="240" height="16" rx="3" fill="white" opacity="0.2"/>
  <rect x="40" y="228" width="140" height="40" rx="8" fill="#dc2626"/>
  <rect x="192" y="228" width="120" height="40" rx="8" fill="white" opacity="0.07" stroke="white" stroke-opacity="0.15" stroke-width="1"/>

  <!-- Platos decorativos -->
  <circle cx="610" cy="185" r="95" fill="#dc2626" opacity="0.06"/>
  <circle cx="610" cy="185" r="70" fill="#dc2626" opacity="0.08"/>
  <circle cx="610" cy="185" r="48" fill="#1f0808"/>
  <text x="610" y="200" font-size="44" text-anchor="middle" fill="#dc2626" opacity="0.7">🍽️</text>

  <!-- Menú highlights -->
  <rect y="320" width="800" height="10" fill="#0f0f0f"/>
  <rect y="330" width="800" height="50" fill="#1a0a0a"/>
  <rect x="80" y="348" width="80" height="12" rx="3" fill="#dc2626" opacity="0.7"/>
  <rect x="80" y="344" width="3" height="20" rx="1" fill="#dc2626"/>
  <rect x="280" y="348" width="80" height="12" rx="3" fill="white" opacity="0.2"/>
  <rect x="480" y="348" width="80" height="12" rx="3" fill="white" opacity="0.2"/>
  <rect x="650" y="348" width="80" height="12" rx="3" fill="white" opacity="0.2"/>

  <!-- Cards de platos -->
  <rect x="32" y="392" width="232" height="148" rx="12" fill="#1a0a0a" stroke="#ffffff08" stroke-width="1"/>
  <rect x="32" y="392" width="232" height="80" rx="12" fill="#2d1010"/>
  <rect x="32" y="452" width="232" height="20" rx="0" fill="#2d1010"/>
  <text x="148" y="438" font-size="28" text-anchor="middle" fill="#dc2626" opacity="0.6">🥩</text>
  <rect x="50" y="480" width="100" height="10" rx="3" fill="white" opacity="0.6"/>
  <rect x="50" y="497" width="140" height="8" rx="3" fill="white" opacity="0.15"/>
  <rect x="180" y="476" width="60" height="22" rx="6" fill="#dc2626" opacity="0.8"/>

  <rect x="280" y="392" width="232" height="148" rx="12" fill="#1a0a0a" stroke="#ffffff08" stroke-width="1"/>
  <rect x="280" y="392" width="232" height="80" rx="12" fill="#1a1205"/>
  <rect x="280" y="452" width="232" height="20" rx="0" fill="#1a1205"/>
  <text x="396" y="438" font-size="28" text-anchor="middle" fill="#ca8a04" opacity="0.7">🍝</text>
  <rect x="298" y="480" width="100" height="10" rx="3" fill="white" opacity="0.6"/>
  <rect x="298" y="497" width="140" height="8" rx="3" fill="white" opacity="0.15"/>
  <rect x="428" y="476" width="60" height="22" rx="6" fill="#dc2626" opacity="0.8"/>

  <rect x="528" y="392" width="232" height="148" rx="12" fill="#1a0a0a" stroke="#ffffff08" stroke-width="1"/>
  <rect x="528" y="392" width="232" height="80" rx="12" fill="#0a1a12"/>
  <rect x="528" y="452" width="232" height="20" rx="0" fill="#0a1a12"/>
  <text x="644" y="438" font-size="28" text-anchor="middle" fill="#16a34a" opacity="0.6">🥗</text>
  <rect x="546" y="480" width="100" height="10" rx="3" fill="white" opacity="0.6"/>
  <rect x="546" y="497" width="140" height="8" rx="3" fill="white" opacity="0.15"/>
  <rect x="676" y="476" width="60" height="22" rx="6" fill="#dc2626" opacity="0.8"/>

  <!-- Footer -->
  <rect y="556" width="800" height="44" fill="#0a0000"/>
  <rect x="32" y="569" width="130" height="9" rx="3" fill="white" opacity="0.2"/>
  <rect x="340" y="569" width="120" height="9" rx="3" fill="white" opacity="0.1"/>
  <rect x="650" y="562" width="110" height="24" rx="6" fill="#dc2626" opacity="0.5"/>
</svg>
